<?xml version="1.0" encoding="iso-8859-1"?>
<!-- Generator: Adobe Illustrator 16.0.0, SVG Export Plug-In . SVG Version: 6.00 Build 0)  -->
<!DOCTYPE svg PUBLIC "-//W3C//DTD SVG 1.1//EN" "http://www.w3.org/Graphics/SVG/1.1/DTD/svg11.dtd">
<svg version="1.1" id="Capa_1" xmlns="http://www.w3.org/2000/svg" xmlns:xlink="http://www.w3.org/1999/xlink" x="0px" y="0px"
	 width="322.524px" height="322.524px" viewBox="0 0 322.524 322.524" style="enable-background:new 0 0 322.524 322.524;"
	 xml:space="preserve">
<g>
	<g>
		<path d="M80.181,161.262h20.157V0h28.667v161.262h20.158v160.589c0,0.231,0.048,0.446,0.071,0.673h-69.12
			c0.023-0.227,0.071-0.441,0.071-0.673L80.181,161.262L80.181,161.262z"/>
		<path d="M234.277,161.262v161.262h-69.057c0.021-0.227,0.073-0.441,0.073-0.673V161.262h20.159V0h28.665v161.262H234.277z"/>
		<polygon points="322.524,322.524 250.402,322.524 250.402,161.262 270.56,161.262 270.56,0 322.524,0 		"/>
		<path d="M0,0h43.896v161.262h20.157v160.589c0,0.231,0.048,0.446,0.071,0.673H0V0z"/>
	</g>
</g>
<g>
</g>
<g>
</g>
<g>
</g>
<g>
</g>
<g>
</g>
<g>
</g>
<g>
</g>
<g>
</g>
<g>
</g>
<g>
</g>
<g>
</g>
<g>
</g>
<g>
</g>
<g>
</g>
<g>
</g>
</svg>
